# AST/ASF file generated using VICON BodyLanguage
# -----------------------------------------------
:version 1.10
:name VICON
:units
  mass 1.0
  length 0.45
  angle deg
:documentation
   .ast/.asf automatically generated from VICON data using
   VICON BodyBuilder and BodyLanguage model FoxedUp or BRILLIANT.MOD
:root
   order TX TY TZ RX RY RZ
   axis XYZ
   position 0 0 0  
   orientation 0 -0 0 
:bonedata
  begin
     id 1 
     name lhipjoint
     direction 0.500677 -0.737119 0.453848 
     length 2.34727 
     axis 0 -0 0  XYZ
  end
  begin
     id 2 
     name lfemur
     direction 0.34202 -0.939693 0  
     length 7.53653  
     axis 0 -0 20  XYZ
    dof rx ry rz
    limits (-160.0 20.0)
           (-70.0 70.0)
           (-60.0 70.0)
  end
  begin
     id 3 
     name ltibia
     direction 0.34202 -0.939693 0   
     length 6.85572   
     axis 0 -0 20   XYZ
    dof rx
    limits (-10.0 170.0)
  end
  begin
     id 4 
     name lfoot
     direction 0.155313 -0.426718 0.890949   
     length 2.18324   
     axis -90 -1.13533e-015 20   XYZ
    dof rx rz
    limits (-45.0 90.0)
           (-70.0 20.0)
  end
  begin
     id 5 
     name ltoes
     direction 1.53474e-011 -4.21647e-011 1   
     length 1.06748   
     axis -90 -1.13533e-015 20   XYZ
    dof rx
    limits (-90.0 20.0)
  end
  begin
     id 6 
     name rhipjoint
     direction -0.632471 -0.659587 0.406111   
     length 2.62319  
     axis 0 -0 0  XYZ 
  end
  begin
     id 7 
     name rfemur
     direction -0.34202 -0.939693 0   
     length 7.21735   
     axis 0 -0 -20   XYZ
    dof rx ry rz
    limits (-160.0 20.0)
           (-70.0 70.0)
           (-70.0 60.0)
  end
  begin
     id 8 
     name rtibia
     direction -0.34202 -0.939693 0   
     length 7.02558   
     axis 0 -0 -20   XYZ
    dof rx
    limits (-10.0 170.0)
 end
 begin
     id 9 
     name rfoot
     direction -0.16057 -0.441164 0.882945   
     length 2.10014  
     axis -90 1.13533e-015 -20   XYZ
    dof rx rz
    limits (-45.0 90.0)
           (-20.0 70.0)
  end
  begin
     id 10 
     name rtoes
     direction -1.53553e-011 -4.2192e-011 1   
     length 1.02554   
     axis -90 1.13533e-015 -20   XYZ
    dof rx
    limits (-90.0 20.0)
  end
  begin
     id 11 
     name lowerback
     direction 0.0401429 0.998861 -0.0258085   
     length 1.80848   
     axis 0 -0 0   XYZ
    dof rx ry rz
    limits (-20.0 45.0)
           (-30.0 30.0)
           (-30.0 30.0)
  end
  begin
     id 12 
     name upperback
     direction -0.0130978 0.999914 -0.000352645   
     length 1.8116   
     axis 0 -0 0   XYZ
    dof rx ry rz
    limits (-20.0 45.0)
           (-30.0 30.0)
           (-30.0 30.0)
  end
  begin
     id 13 
     name thorax
     direction -0.0300198 0.999453 0.0138573   
     length 1.81778   
     axis 0 -0 0   XYZ
    dof rx ry rz
    limits (-20.0 45.0)
           (-30.0 30.0)
           (-30.0 30.0)
  end
  begin
     id 14 
     name lowerneck
     direction -0.0401726 0.999191 -0.00173647   
     length 2.10594   
     axis 0 -0 0   XYZ
    dof rx ry rz
    limits (-20.0 45.0)
           (-30.0 30.0)
           (-30.0 30.0)
  end
  begin
     id 15 
     name upperneck
     direction 0.0119835 0.998501 0.0534085   
     length 2.07325   
     axis 0 -0 0   XYZ
    dof rx ry rz
    limits (-20.0 45.0)
           (-30.0 30.0)
           (-30.0 30.0)
  end
  begin
     id 16
     name head
     direction 0.00628309 0.999826 0.0175921  
     length 2.15096  
     axis 0 -0 0   XYZ
    dof rx ry rz
    limits (-20.0 45.0)
           (-30.0 30.0)
           (-30.0 30.0)
  end
  begin
     id 17 
     name lclavicle
     direction 0.895501 0.429681 -0.115981  
     length 4.18092  
     axis 0 -0 0   XYZ
    dof ry rz
    limits (-20.0 10.0)
           (0.0 20.0)
  end
  begin
     id 18 
     name lhumerus
     direction 1 -4.48961e-011 -3.38433e-028   
     length 5.77237   
     axis 180 -30 -90   XYZ
    dof rx ry rz
    limits (-60.0 90.0)
           (-90.0 90.0)
           (-90.0 90.0)
  end
  begin
     id 19
     name lradius
     direction 1 -4.4901e-011 1.11983e-026   
     length 2.91878   
     axis 180 -30 -90   XYZ
    dof rx
    limits (-10.0 170.0)
  end
  begin
     id 20
     name lwrist
     direction 1 -4.48934e-011 1.88176e-026   
     length 1.45939   
     axis -1.23311e-014 90 90   XYZ
    dof ry
    limits (-180.0 0.0)
 end
  begin
     id 21 
     name lhand
     direction 1 -4.4895e-011 3.76352e-026   
     length 1.06566   
     axis -2.40147e-014 90 90   XYZ
    dof rx rz
    limits (-90.0 90.0)
           (-45.0 45.0)
  end
  begin
     id 22 
     name lfingers
     direction 1 -4.49005e-011 7.52705e-026   
     length 0.859162   
     axis -4.80295e-014 90 90   XYZ
    dof rx
    limits (0.0 90.0)
  end
  begin
     id 23
     name lthumb
     direction 0.707107 -6.34885e-011 0.707107   
     length 1.23359   
     axis -90 45 -9.86935e-015   XYZ
    dof rx rz
    limits (-45.0 45.0)
           (-45.0 45.0)
  end
  begin
     id 24 
     name rclavicle
     direction -0.91006 0.40451 -0.0903492   
     length 4.23293  
     axis 0 -0 0   XYZ 
    dof ry rz
    limits (-10.0 20.0)
           (-20.0 0.0)
  end
  begin
     id 25 
     name rhumerus
     direction -1 -4.4897e-011 1.7415e-027  
     length 5.49854   
     axis 180 30 90   XYZ
    dof rx ry rz
    limits (-90.0 60.0)
           (-90.0 90.0)
           (-90.0 90.0)
  end
  begin
     id 26 
     name rradius
     direction -1 -4.48963e-011 1.21259e-026   
     length 3.1186   
     axis 180 30 90   XYZ
    dof rx
    limits (-10.0 170.0)
  end
  begin
     id 27 
     name rwrist
     direction -1 -4.48967e-011 1.88176e-026   
     length 1.5593   
     axis -1.23311e-014 -90 -90   XYZ
    dof ry
    limits (-180.0 0.0)
  end
  begin
     id 28
     name rhand
     direction -1 -4.4895e-011 3.76352e-026   
     length 0.71207   
     axis -2.40147e-014 -90 -90   XYZ
    dof rx rz
    limits (-90.0 90.0)
           (-45.0 45.0)
  end
  begin
     id 29
     name rfingers
     direction -1 -4.49005e-011 7.52705e-026   
     length 0.574089   
     axis -4.80295e-014 -90 -90   XYZ
    dof rx
    limits (0.0 90.0)
  end
  begin
     id 30
     name rthumb
     direction -0.707107 -6.34982e-011 0.707107   
     length 0.824281   
     axis -90 -45 9.86935e-015   XYZ
    dof rx rz
    limits (-45.0 45.0)
           (-45.0 45.0)
  end
:hierarchy
  begin
    root lhipjoint rhipjoint lowerback
    lhipjoint lfemur
    lfemur ltibia
    ltibia lfoot
    lfoot ltoes
    rhipjoint rfemur
    rfemur rtibia
    rtibia rfoot
    rfoot rtoes
    lowerback upperback
    upperback thorax
    thorax lowerneck lclavicle rclavicle
    lowerneck upperneck
    upperneck head
    lclavicle lhumerus
    lhumerus lradius
    lradius lwrist
    lwrist lhand lthumb
    lhand lfingers
    rclavicle rhumerus
    rhumerus rradius
    rradius rwrist
    rwrist rhand rthumb
    rhand rfingers
  end

#!OML:ASF C:\ViconDB\ViconDB\414\Spring2016\042216\male.ASF
:FULLY-SPECIFIED
:DEGREES
204
root -10.2015 20.3425 9.48848 -158.377 69.3029 -164.72
lowerback 8.63047 -5.60924 10.6271
upperback 1.11175 -6.3174 0.905243
thorax -4.71135 -3.26656 -4.12182
lowerneck 2.20813 9.11304 -5.5062
upperneck -20.7875 12.9927 0.845497
head -7.15358 6.87219 0.217921
rclavicle 4.09993e-014 -4.57205e-014
rhumerus -21.7155 -1.48311 -22.9389
rradius 45.9693
rwrist 5.6288
rhand -5.74118 -31.9945
rfingers 7.12502
rthumb 20.0811 -60.9767
lclavicle 4.09993e-014 -4.57205e-014
lhumerus -18.9295 23.1346 28.9748
lradius 55.9386
lwrist 8.68411
lhand -37.8836 9.21462
lfingers 7.12502
lthumb -10.9269 38.9103
rfemur -43.3692 -4.79217 27.7865
rtibia 60.4795
rfoot 9.03403 1.26026
rtoes -20.9368
lfemur -23.4152 7.63887 -13.5255
ltibia 65.2133
lfoot -1.70061 7.9862
ltoes -15.1933
205
root -10.0876 20.3457 9.44726 -159.057 69.8224 -165.124
lowerback 9.14553 -5.43307 10.4036
upperback 1.0604 -6.02453 1.03859
thorax -4.97088 -3.12529 -3.86154
lowerneck 2.52449 9.23081 -5.4144
upperneck -20.6851 13.0985 0.692179
head -7.16181 6.91736 0.133641
rclavicle 4.48259e-014 -2.43511e-014
rhumerus -22.045 -1.15776 -22.9802
rradius 46.3681
rwrist 5.61656
rhand -5.7851 -31.8372
rfingers 7.12502
rthumb 20.0389 -60.8238
lclavicle 4.48259e-014 -2.43511e-014
lhumerus -19.76 22.4224 28.8416
lradius 55.3878
lwrist 8.6797
lhand -37.4204 8.57978
lfingers 7.12502
lthumb -10.4802 38.2985
rfemur -40.3742 -4.09051 27.5136
rtibia 55.6924
rfoot 10.517 1.88942
rtoes -21.3455
lfemur -25.3478 8.77674 -13.6005
ltibia 70.2706
lfoot -3.18478 7.76179
ltoes -13.4663
206
root -9.97352 20.3318 9.41221 -159.588 70.3199 -165.367
lowerback 9.5634 -5.2484 10.335
upperback 1.11281 -5.72812 1.08561
thorax -5.0927 -2.97717 -3.79394
lowerneck 2.61699 9.27481 -5.48943
upperneck -20.5392 13.1687 0.858336
head -7.14933 6.93856 0.189932
rclavicle 2.53947e-014 2.20651e-014
rhumerus -22.5675 -1.26892 -23.3332
rradius 46.7347
rwrist 5.39158
rhand -5.87047 -31.6555
rfingers 7.12502
rthumb 19.9569 -60.6507
lclavicle 2.53947e-014 2.20651e-014
lhumerus -20.4584 21.8462 28.79
lradius 54.7269
lwrist 8.37658
lhand -37.4155 8.92869
lfingers 7.12502
lthumb -10.4754 38.6477
rfemur -37.3081 -3.28656 27.305
rtibia 50.8222
rfoot 11.715 2.27057
rtoes -22.2777
lfemur -27.2857 9.84443 -13.4769
ltibia 74.9256
lfoot -5.51503 7.73671
ltoes -14.5013
207
root -9.8584 20.2676 9.37965 -160.69 70.8341 -166.226
lowerback 9.94846 -5.04115 10.0935
upperback 1.16797 -5.42982 1.09912
thorax -5.18094 -2.82493 -3.67255
lowerneck 2.58202 9.29141 -5.64704
upperneck -20.3359 13.1777 0.924888
head -7.09312 6.94608 0.241693
rclavicle -4.88141e-014 1.51449e-014
rhumerus -23.1012 -1.21657 -23.7847
rradius 46.8966
rwrist 5.23465
rhand -6.43984 -31.7017
rfingers 7.12502
rthumb 19.4095 -60.7529
lclavicle -4.88141e-014 1.51449e-014
lhumerus -21.26 21.679 28.9127
lradius 53.9443
lwrist 8.07721
lhand -37.1822 8.58719
lfingers 7.12502
lthumb -10.2505 38.3174
rfemur -34.3571 -2.52455 26.9143
rtibia 46.0561
rfoot 12.8856 2.68501
rtoes -22.4217
lfemur -29.2438 10.7474 -13.579
ltibia 79.2842
lfoot -7.66973 7.78712
ltoes -15.2669
208
root -9.74113 20.2237 9.35048 -161.199 71.1395 -166.553
lowerback 10.058 -4.88456 10.0988
upperback 1.39234 -5.2127 1.10698
thorax -4.97146 -2.69917 -3.70884
lowerneck 2.34396 9.27231 -5.52388
upperneck -20.2202 13.1591 0.822111
head -6.99753 6.94332 0.21066
rclavicle -4.67268e-014 1.63003e-014
rhumerus -23.6123 -1.6746 -24.5378
rradius 46.8555
rwrist 4.86764
rhand -6.78987 -31.5499
rfingers 7.12502
rthumb 19.0729 -60.6347
lclavicle -4.67268e-014 1.63003e-014
lhumerus -21.8363 22.0423 29.1563
lradius 53.4686
lwrist 8.05131
lhand -37.0392 9.47831
lfingers 7.12502
lthumb -10.1125 39.2153
rfemur -31.3088 -1.71401 26.8066
rtibia 41.1069
rfoot 13.9061 2.84841
rtoes -22.6923
lfemur -31.2473 11.6254 -13.4011
ltibia 83.1485
lfoot -9.33958 7.58711
ltoes -14.7903
209
root -9.62011 20.1644 9.32251 -161.862 71.309 -167.156
lowerback 10.1113 -4.74019 10.0779
upperback 1.50753 -5.0197 1.10797
thorax -4.8488 -2.59355 -3.73183
lowerneck 2.23932 9.22894 -5.44182
upperneck -20.1077 13.109 0.813932
head -6.93444 6.91696 0.209757
rclavicle -1.63003e-014 5.26779e-015
rhumerus -24.3801 -1.82301 -25.3621
rradius 46.7595
rwrist 4.99696
rhand -6.95691 -31.6123
rfingers 7.12502
rthumb 18.9123 -60.7129
lclavicle -1.63003e-014 5.26779e-015
lhumerus -22.551 22.3171 29.5074
lradius 53.0518
lwrist 8.09098
lhand -37.1153 10.2009
lfingers 7.12502
lthumb -10.1859 39.9343
rfemur -28.3729 -0.838108 26.6017
rtibia 36.1763
rfoot 14.7692 2.44735
rtoes -22.3943
lfemur -33.3617 12.2726 -13.251
ltibia 86.6296
lfoot -10.9234 7.5219
ltoes -15.4297
210
root -9.49779 20.0872 9.30441 -162.602 71.206 -168.007
lowerback 9.91049 -4.61991 9.96048
upperback 1.62791 -4.90246 1.12496
thorax -4.58079 -2.519 -3.68976
lowerneck 2.09209 9.16315 -5.09162
upperneck -20.0119 13.0048 0.539794
head -6.83069 6.86864 0.0935692
rclavicle -4.57205e-014 2.38542e-014
rhumerus -25.191 -1.92687 -26.3163
rradius 46.5374
rwrist 5.06786
rhand -7.14875 -31.7196
rfingers 7.12502
rthumb 18.7278 -60.8381
lclavicle -4.57205e-014 2.38542e-014
lhumerus -23.173 22.605 29.9965
lradius 52.6519
lwrist 8.55488
lhand -37.6088 10.7669
lfingers 7.12502
lthumb -10.6619 40.4764
rfemur -25.4935 0.0323487 26.4491
rtibia 30.9825
rfoot 15.8311 1.96227
rtoes -22.6589
lfemur -35.762 12.8146 -13.075
ltibia 89.7951
lfoot -12.0687 6.93428
ltoes -14.5124
